<svg xmlns="http://www.w3.org/2000/svg" width="380" height="500" viewBox="0 0 380 500"><defs><linearGradient id="b" x1="0" x2="1"><stop stop-color="#f7fbff"/><stop offset=".5" stop-color="#bcc9e2"/><stop offset="1" stop-color="#fff"/></linearGradient><radialGradient id="w"><stop stop-color="#83e6ff"/><stop offset=".55" stop-color="#3153a2"/><stop offset="1" stop-color="#101b4e"/></radialGradient><linearGradient id="f" y2="1"><stop stop-color="#fff8ac"/><stop offset=".35" stop-color="#ff9b45"/><stop offset="1" stop-color="#9c36ff" stop-opacity="0"/></linearGradient></defs><path d="M190 18C117 73 91 178 108 326h164c17-148-9-253-82-308Z" fill="url(#b)" stroke="#fff" stroke-width="8"/><path d="M108 272 47 370l67-19M272 272l61 98-67-19" fill="#7c56df" stroke="#c9b9ff" stroke-width="8" stroke-linejoin="round"/><circle cx="190" cy="164" r="55" fill="url(#w)" stroke="#edf6ff" stroke-width="10"/><path d="M159 326h62l34 163c-42-27-88-27-130 0Z" fill="url(#f)"/><path d="M167 327h46l12 81-35 48-35-48Z" fill="#fff2a1" opacity=".85"/><circle cx="147" cy="248" r="9" fill="#a95cff"/><circle cx="190" cy="248" r="9" fill="#60d6ff"/><circle cx="233" cy="248" r="9" fill="#ff71b8"/></svg>
